PathFileType	4	(X/Y/Z)	C:/Users/beibeiliu/ov580/test_trc\sequence.32_training_dense_left.trc
DataRate	CameraRate	NumFrames	NumMarkers	Units	OrigDataRate	OrigDataStartFrame	OrigNumFrames
120	120	18	19	mm	120	126	200
Frame#	Time	ThumbCMC			ThumbMCP			ThumbIP			ThumbTip			IndexMCP			IndexPIP			IndexTip			MiddleMCP			MiddlePIP			MiddleTip			RingMCP			RingPIP			RingTip			PinkyMCP			PinkyPIP			PinkyTip			BackHand1			BackHand2			BackHand3	
		X0	Y0	Z0	X1	Y1	Z1	X2	Y2	Z2	X3	Y3	Z3	X4	Y4	Z4	X5	Y5	Z5	X6	Y6	Z6	X7	Y7	Z7	X8	Y8	Z8	X9	Y9	Z9	X10	Y10	Z10	X11	Y11	Z11	X12	Y12	Z12	X13	Y13	Z13	X14	Y14	Z14	X15	Y15	Z15	X16	Y16	Z16	X17	Y17	Z17	X18	Y18	Z18	
125	1.04167	-135.498	75.2602	20.0908	-119.923	75.9626	-1.29899	-114.189	81.5928	-24.1131	-112.405	84.2348	-45.0114	-141.633	95.3936	-42.5099	-134.032	85.9879	-66.9998	-127.296	60.923	-80.5965	-158.163	80.4287	-54.8292	-150.696	57.9966	-69.6796	-140.16	29.7184	-60.9351	-184.392	77.776	-48.0823	-175.211	69.487	-74.3641	-167.962	51.9262	-88.8016	-202.844	67.4162	-30.3099	-212.314	69.9754	-48.9879	-222.619	69.4083	-64.4939	-186.623	82.2487	-0.858358	-186.152	79.1229	24.4558	-161.776	89.5023	15.9531	
126	1.05	-134.429	71.8945	20.3848	-122.055	73.1698	0.0802543	-113.095	81.4254	-25.5456	-111.097	82.6618	-44.7972	-138.572	91.4568	-47.3402	-132.61	81.9621	-67.0234	-128.577	59.6071	-85.5389	-159.957	78.7208	-49.9251	-148.107	60.3529	-68.8643	-139.116	30.479	-68.5859	-183.32	77.0767	-51.6853	-178.708	71.1578	-71.4212	-173.637	61.897	-90.2307	-203.933	68.2411	-28.5074	-208.277	73.0818	-43.7186	-222.892	76.7537	-58.6777	-184.547	83.9866	-1.95716	-184.796	75.3316	27.6676	-162.986	89.6743	13.8114	
127	1.05833	-134.083	69.4335	22.2185	-116.467	70.0982	0.860263	-114.165	76.1565	-22.0143	-106.935	81.0816	-45.8781	-139.262	86.6764	-46.5557	-132.104	79.6866	-65.2869	-128.259	64.7208	-89.0156	-153.459	75.4365	-53.2061	-148.553	56.6839	-70.7465	-142.631	28.6203	-78.9572	-180.255	77.3481	-49.2052	-180.751	73.0328	-68.6811	-175.47	70.269	-93.3944	-202.832	69.2559	-27.624	-211.028	73.164	-39.6539	-221.005	84.2105	-52.822	-181.367	80.9951	3.19862	-183.697	78.659	24.5898	-161.556	87.5896	13.265	
128	1.06667	-133.725	64.3711	23.212	-116.816	65.495	1.66604	-111.834	72.0632	-21.7306	-104.05	74.1561	-39.2075	-138.664	82.9483	-43.0047	-132.337	77.1981	-66.3667	-124.941	70.3476	-84.6865	-155.68	72.6472	-53.6791	-149.181	61.6296	-73.835	-148.063	41.0218	-91.8238	-180.647	75.6755	-49.0028	-180.71	75.1293	-64.9319	-180.18	77.1064	-90.0559	-197.781	68.4911	-25.3779	-209.588	74.9537	-37.6422	-218.075	89.6412	-48.8839	-180.616	77.6439	0.796266	-183.275	75.3286	28.0428	-156.91	83.755	17.7419	
129	1.075	-131.429	60.077	22.7653	-116.5	60.7054	1.22472	-108.842	68.5895	-22.6312	-102.483	69.404	-35.7357	-133.023	79.2227	-40.9089	-127.96	75.8124	-67.33	-122.974	72.9324	-84.9961	-158.401	74.0327	-51.1543	-151.444	68.8364	-74.9826	-151.787	63.5832	-99.0006	-180.224	74.4228	-46.0797	-182.339	78.1309	-63.4259	-183.693	84.5529	-83.5093	-199.033	66.7866	-23.5393	-205.504	75.4396	-36.6006	-214.846	90.6014	-43.9703	-178.457	74.9222	2.10022	-178.64	73.1677	27.7266	-152.664	79.3945	14.8313	
130	1.08333	-131.2	57.7755	19.778	-113.58	59.565	-0.677144	-105.015	63.1273	-21.4497	-94.5314	65.8608	-36.0691	-131.556	76.5861	-41.2778	-128.416	76.2794	-65.8633	-123.257	75.6267	-88.5933	-156.056	78.8418	-50.2699	-155.443	81.3422	-71.0885	-156.082	86.9278	-94.0462	-181.495	74.0156	-39.6638	-180.54	83.7136	-62.5253	-186.101	94.3424	-78.938	-197.91	65.6295	-26.7943	-205.315	72.1796	-37.7093	-217.411	85.0424	-45.0522	-179.404	73.517	-1.66636	-178.961	67.7892	25.6386	-153.114	75.4723	16.4437	
131	1.09167	-133.566	54.7847	19.2145	-115.755	54.8324	-1.39297	-103.774	57.977	-19.1108	-93.7833	59.666	-36.2343	-134.068	77.1684	-44.9242	-129.073	78.6984	-62.9244	-126.237	81.0785	-85.5612	-161.378	83.2579	-49.4296	-161.341	90.1707	-67.9946	-166.961	103.702	-88.0132	-183.738	73.8832	-40.9128	-188.826	84.8417	-57.9234	-194.142	95.2189	-71.507	-198.175	61.4776	-29.1389	-210.933	65.0329	-40.6984	-225.015	77.2188	-49.874	-182.228	68.6537	-0.135737	-178.695	68.0713	25.1256	-156.239	73.2164	14.8481	
132	1.1	-133.942	56.4389	16.2777	-113.149	52.7215	-2.61352	-102.374	55.645	-21.0285	-91.2195	54.6059	-32.7384	-138.893	79.3271	-43.6071	-133.629	85.3802	-64.1163	-126.192	91.7338	-82.0485	-165.737	84.5693	-48.4437	-169.455	94.412	-65.0928	-175.317	112.406	-80.8701	-183.027	74.1068	-42.5411	-192.187	83.4759	-59.332	-194.959	95.4455	-71.4669	-200.376	55.1794	-33.4616	-212.084	55.5845	-49.0424	-225.26	60.1987	-61.4526	-181.239	66.1685	-4.31831	-181.099	64.4897	26.9002	-156.644	75.395	8.64783	
133	1.10833	-131.815	56.7133	14.4512	-115.287	49.0786	-0.294802	-103.846	48.8551	-19.9038	-87.302	49.3802	-35.0225	-140.134	80.8578	-40.8286	-136.23	88.2	-61.8007	-129.248	100.253	-79.9042	-169.661	82.5827	-46.1244	-169.756	95.2094	-63.0155	-181.183	110.276	-75.8945	-189.773	67.2346	-40.1885	-191.489	77.2862	-60.1932	-198.42	90.0424	-77.4982	-203.984	46.8114	-34.7828	-211.663	43.8225	-50.6017	-217.352	44.6822	-67.8061	-184.558	65.1834	-0.482901	-184.706	62.9027	24.4439	-162.022	73.261	10.7862	
134	1.11667	-135.371	54.0249	16.2623	-118.705	46.2607	-6.05992	-105.171	45.0237	-22.1568	-90.5227	42.7241	-34.2075	-144.037	81.6025	-40.5168	-134.2	93.3199	-60.4808	-135.483	102.683	-75.6033	-169.939	81.9347	-46.2581	-175.188	91.3793	-61.6471	-181.485	110.157	-79.507	-190.286	64.5363	-43.3458	-192.213	72.7499	-64.9792	-200.375	80.0904	-84.7187	-204.739	41.6487	-40.6748	-205.014	36.8885	-58.9875	-207.469	31.9023	-76.3217	-186.507	61.4537	-6.44387	-185.413	63.2281	19.8201	-162.622	74.0687	8.40193	
135	1.125	-136.639	54.1136	18.3998	-119.14	43.528	-1.55809	-105.38	41.0566	-22.1319	-89.1412	38.451	-32.8047	-145.697	83.8619	-43.012	-142.776	94.1905	-60.6343	-141.645	107.583	-74.2684	-172.446	78.9686	-47.1878	-175.072	88.5848	-64.742	-189.074	103.457	-85.5835	-186.076	62.944	-48.5138	-193.144	65.0677	-71.402	-192.907	68.5872	-91.0545	-198.433	38.2812	-38.5552	-198.71	27.473	-60.2883	-196.625	19.68	-76.3808	-187.047	60.9453	-4.07241	-191.386	57.4781	18.6204	-165.038	71.7913	9.4363	
136	1.13333	-139.92	53.8151	13.043	-119.639	42.8805	-5.58317	-105.942	39.3214	-18.4869	-90.8792	36.2795	-34.6876	-147.61	85.5441	-41.3389	-147.073	95.8234	-57.2539	-146.872	108.839	-70.097	-173.024	77.7503	-49.1199	-175.586	86.3191	-69.818	-182.805	97.6348	-91.6525	-186.486	56.4333	-48.3763	-185.743	55.7774	-70.5805	-183.991	51.1885	-96.1041	-195.108	32.8106	-44.478	-191.74	21.5374	-57.6508	-182.018	12.156	-76.5821	-186.971	59.0152	-1.94394	-192.174	56.4767	20.4588	-168.684	70.7311	9.17631	
137	1.14167	-139.954	55.2838	14.3569	-119.983	43.3334	-2.48449	-108.877	39.2911	-23.7447	-95.3743	35.1826	-39.0465	-149.541	84.3539	-36.2547	-144.882	98.4854	-54.8309	-145.806	112.916	-67.8957	-170.736	73.9155	-46.9954	-172.934	82.5905	-72.9055	-181.012	87.3182	-95.4194	-184.757	51.1033	-48.4019	-179.753	43.2546	-72.1807	-166.182	33.0643	-92.7591	-192.182	32.5436	-42.277	-186.883	20.5955	-57.6809	-181.61	15.2442	-72.0077	-188.337	59.2072	-2.00356	-190.2	54.2533	22.6395	-166.686	72.8009	10.664	
138	1.15	-138.017	53.5127	18.3169	-121.067	42.4224	-3.05752	-106.247	39.926	-26.4335	-95.7909	35.0456	-40.0523	-148.429	85.2253	-38.0025	-148.498	96.745	-56.599	-147.467	112.838	-70.0711	-170.089	71.6594	-52.5793	-167.133	73.7818	-77.0724	-169.393	74.4429	-100.373	-179.099	48.5955	-48.149	-168.693	35.6149	-69.5282	-159.159	18.1794	-81.3463	-191.552	35.3279	-42.6219	-191.419	23.4827	-57.9652	-188.942	19.7746	-72.263	-189.556	60.1301	-5.35647	-187.933	55.0709	25.62	-164.238	72.6756	10.0277	
139	1.15833	-133.039	54.492	16.7849	-117.457	43.7792	-5.39079	-109.078	40.2395	-26.5542	-100.422	36.4564	-40.4211	-144.203	84.7769	-38.7169	-143.787	95.0799	-57.7124	-147.472	105.072	-70.3301	-167.22	66.9188	-55.3986	-161.658	64.5064	-75.0351	-156.068	56.526	-100.283	-175.835	45.0707	-49.6434	-165.418	28.881	-68.9213	-150.114	13.6555	-76.9703	-194.565	37.1777	-35.495	-195.998	28.5057	-53.0632	-198.358	22.4078	-73.0976	-185.067	59.0533	0.429668	-187.588	57.3693	21.5347	-164.703	69.9708	13.5834	
140	1.16667	-133.476	54.4464	17.7263	-115.948	43.7082	-2.18978	-106.429	41.0197	-24.4692	-95.9106	37.4288	-43.1856	-145.055	81.311	-40.5867	-144.242	90.9613	-60.0332	-146.482	101.166	-73.3146	-159.726	63.4792	-50.9744	-154.61	53.2447	-75.8134	-142.288	33.1822	-95.1382	-173.749	48.3655	-48.5484	-163.013	32.9626	-70.159	-150.273	17.9825	-79.6763	-194.844	38.4767	-36.1093	-198.341	32.9953	-51.9824	-201.356	33.1957	-68.5393	-182.817	59.1523	-0.062421	-183.961	55.8362	27.507	-159.798	73.8495	12.6598	
141	1.175	-129.831	52.8559	19.7178	-116.306	42.4155	-3.03548	-102.115	40.6884	-21.9575	-96.8303	36.3361	-38.6911	-139.041	78.9128	-38.5106	-138.506	84.4573	-57.7781	-138.237	98.0778	-77.3866	-157.241	59.1212	-51.1036	-142.141	41.8678	-74.6631	-132.094	17.9576	-80.8294	-175.314	47.0804	-50.8883	-167.854	36.1092	-69.278	-158.609	23.27	-83.3833	-196.569	39.8049	-37.5069	-198.839	37.1751	-48.7433	-207.908	40.5022	-68.6893	-180.574	59.0728	-3.99219	-183.996	56.9342	22.7291	-159.798	68.8185	13.3401	
142	1.18333	-127.513	50.6688	22.0856	-114.073	40.8233	-2.50822	-102.055	38.0109	-22.9494	-95.6524	33.7725	-41.1793	-138.234	77.2644	-39.1973	-138.407	80.6304	-61.2446	-137.07	88.1775	-78.9604	-150.24	54.8112	-52.6306	-141.469	34.0112	-69.7714	-129.452	4.15638	-63.2252	-171.529	49.5793	-48.3127	-168.02	38.5296	-70.1702	-154.19	28.7173	-90.104	-195.671	39.5472	-36.8599	-196.568	40.1771	-50.5871	-208.912	42.289	-63.4582	-178.443	58.1514	-2.13294	-184.621	55.1993	21.7378	-159.947	67.7738	14.195	
